<svg xmlns="http://www.w3.org/2000/svg" xmlns:xlink="http://www.w3.org/1999/xlink" xmlns:inkscape="http://www.inkscape.org/namespaces/inkscape" viewBox="0 0 947.9237 283.08906">
<defs>
<clipPath id="aeonix_clip_1">
<path transform="matrix(1,0,0,-1,-191.98317,802.46157)" d="M191.98317 519.3725H1139.9069V802.46157H191.98317Z" clip-rule="evenodd"/>
</clipPath>
<clipPath id="aeonix_clip_2">
<path transform="matrix(1,0,0,-1,-191.98317,802.46157)" d="M0 1354.818H1333.094V0H0Z"/>
</clipPath>
</defs>
<g clip-path="url(#aeonix_clip_1)">
<g inkscape:groupmode="layer" inkscape:label="Capa 1">
<g clip-path="url(#aeonix_clip_2)">
<path transform="matrix(1,0,0,-1,347.20387,170.08008)" d="M0 0H-58.134L-44.022-28.33H25.362C15.27-20.458 6.656-10.867 0 0" fill="currentColor"/>
<path transform="matrix(1,0,0,-1,221.77672,34.42035)" d="M0 0 14.098-28.399H125.427C132.087-17.527 140.707-7.931 150.807-.057Z" fill="currentColor"/>
<path transform="matrix(1,0,0,-1,333.04487,130.61408)" d="M0 0C-.738 4.637-1.153 9.359-1.153 14.165-1.153 18.97-.738 23.691 0 28.327H-77.579L-63.517 0Z" fill="currentColor"/>
<path transform="matrix(1,0,0,-1,485.88697,116.449039)" d="M0 0C0 26.606-21.562 48.166-48.177 48.166-74.791 48.166-96.355 26.606-96.355 0-96.355-26.608-74.791-48.167-48.177-48.167-21.562-48.167 0-26.607 0 0M-48.176 87.959C.414 87.959 39.806 48.576 39.806 0 39.806-48.578 .414-87.962-48.176-87.962-96.767-87.962-136.161-48.578-136.161 0-136.161 48.578-96.767 87.959-48.176 87.959" fill="currentColor"/>
<path transform="matrix(1,0,0,-1,-191.98317,802.46157)" d="M903.464 773.97H937.743V604.05099H903.464Z" fill="currentColor"/>
<path transform="matrix(1,0,0,-1,877.48989,98.942569)" d="M0 0 59.244 70.451H14.221C12.532 70.451 10.922 69.72 9.787 68.437L-23.839 30.444ZM59.244-99.468H13.674C12.345-99.468 11.087-98.849 10.254-97.786L-31.111-44.952-71.525-96.572C-72.958-98.402-75.124-99.468-77.414-99.468H-121.468L-58.349-18.852C-56.362-16.314-56.362-12.701-58.349-10.163L-121.468 70.451H-76.291C-74.711 70.451-73.217 69.716-72.228 68.453L-31.111 15.939-7.274-14.508Z" fill="currentColor"/>
<path transform="matrix(1,0,0,-1,658.79568,198.41004)" d="M0 0V94.922C0 120.011-23.974 140.547-53.261 140.547-82.547 140.547-106.521 120.011-106.521 94.922V0H-140.808V94.924C-140.808 136.175-101.416 169.92-53.261 169.92-5.105 169.92 34.287 136.175 34.287 94.924V0Z" fill="currentColor"/>
<path transform="matrix(1,0,0,-1,54.063539,253.36176)" d="M0 0C0-7.796-1.469-18.914-14.898-18.914-28.241-18.914-29.71-7.751-29.71 0V12.669H-25.089V0C-25.089-3.543-24.657-9.878-21.548-12.447-19.648-14.041-17.662-14.573-14.855-14.573-12.048-14.573-10.105-14.041-8.162-12.447-5.096-9.922-4.578-3.543-4.578 0V12.669H0Z" fill="currentColor"/>
<path transform="matrix(1,0,0,-1,101.30763,272.27583)" d="M0 0H-29.277V31.583H-24.656V4.474H0Z" fill="currentColor"/>
<path transform="matrix(1,0,0,-1,121.77934,245.16645)" d="M0 0V-27.109H-4.621V0H-18.094V4.474H13.516V0Z" fill="currentColor"/>
<path transform="matrix(1,0,0,-1,172.13384,254.86768)" d="M0 0C4.404 0 7.384 .443 7.384 4.341V5.448C7.384 9.524 3.887 9.701-.604 9.701H-14.293V0ZM-.82 14.175C6.995 14.175 12.048 12.403 12.048 5.493V4.208C12.048-1.417 8.507-4.03 1.685-4.43L13.688-17.408H7.428L-4.491-4.43H-14.293L-14.25-17.408H-18.914V14.175Z" fill="currentColor"/>
<path transform="matrix(1,0,0,-1,217.30672,257.65766)" d="M0 0H8.896L4.491 7.84ZM-8.291-14.618H-13.56L4.491 17.054 22.541-14.618H17.229L11.356-4.297H-2.462Z" fill="currentColor"/>
<path transform="matrix(1,0,0,-1,268.95704,272.27583)" d="M0 0C-4.232 0-8.637 .222-11.228 3.499-11.919 4.386-12.394 5.448-12.566 6.512-12.739 7.397-12.739 8.239-12.739 9.125V10.853H-8.118V8.859C-8.118 8.416-8.118 7.929-8.032 7.53-7.514 4.519-3.844 4.474-.476 4.474H5.57C8.896 4.474 12.307 4.651 12.825 7.53 12.868 7.974 12.868 8.416 12.868 8.859V9.523C12.868 11.65 11.832 12.58 10.363 13.111 9.586 13.333 8.68 13.466 7.687 13.511 6.693 13.599 5.613 13.599 4.534 13.599H-.13C-4.361 13.599-8.853 13.776-11.443 17.054-12.825 18.737-12.955 20.598-12.955 22.503V23.167C-12.955 29.988-7.773 31.583-.13 31.583H4.404C8.637 31.583 13.214 31.406 15.762 28.128 16.452 27.198 16.928 26.135 17.1 25.071 17.272 24.186 17.272 23.3 17.272 22.414V20.775H12.652V22.68C12.652 23.167 12.652 23.61 12.565 24.097 12.048 27.065 8.42 27.153 5.052 27.153H-.734C-3.109 27.153-6.478 27.109-7.729 25.471-8.291 24.673-8.334 23.698-8.334 22.68L-8.291 22.06C-8.291 19.934-7.298 18.959-5.83 18.516-5.053 18.25-4.146 18.161-3.152 18.073-2.159 18.028-1.036 18.028 0 18.028H4.663C8.853 18.028 13.387 17.807 15.978 14.573 17.359 12.846 17.488 11.074 17.488 9.125V8.461C17.488 1.595 12.221 0 4.663 0Z" fill="currentColor"/>
<path transform="matrix(1,0,0,-1,322.16114,245.12244)" d="M0 0C-10.147 0-13.084-3.81-13.084-11.384-13.084-18.914-10.147-22.768 0-22.768 10.062-22.768 13.084-18.87 13.084-11.384 13.084-3.81 10.147 0 0 0M0 4.43C13.3 4.43 17.748-1.815 17.748-11.384 17.748-20.819 13.214-27.242 0-27.242-13.3-27.242-17.748-20.863-17.748-11.384-17.748-1.904-13.214 4.43 0 4.43" fill="currentColor"/>
<path transform="matrix(1,0,0,-1,387.54408,253.36176)" d="M0 0C0-7.796-1.469-18.914-14.898-18.914-28.241-18.914-29.71-7.751-29.71 0V12.669H-25.089V0C-25.089-3.543-24.657-9.878-21.548-12.447-19.648-14.041-17.662-14.573-14.855-14.573-12.048-14.573-10.105-14.041-8.162-12.447-5.096-9.922-4.578-3.543-4.578 0V12.669H0Z" fill="currentColor"/>
<path transform="matrix(1,0,0,-1,410.08796,272.27583)" d="M0 0H-4.577V31.583H-1.036L22.153 7.486V31.583H26.816V0H23.189L.044 24.142Z" fill="currentColor"/>
<path transform="matrix(1,0,0,-1,469.55476,267.80213)" d="M0 0C4.102 0 8.377 .753 10.579 3.588 12.307 5.67 12.652 8.815 12.652 11.34 12.652 13.865 12.264 17.01 10.579 19.092 8.377 21.883 4.102 22.68 0 22.68H-10.062V0ZM0 27.109C5.699 27.109 11.184 25.692 14.379 21.661 16.711 18.737 17.315 14.662 17.315 11.296 17.315 2.171 12.911-4.474 0-4.474H-14.683V27.109Z" fill="currentColor"/>
<path transform="matrix(1,0,0,-1,549.44839,272.27583)" d="M0 0C-4.232 0-8.637 .222-11.228 3.499-11.919 4.386-12.394 5.448-12.566 6.512-12.739 7.397-12.739 8.239-12.739 9.125V10.853H-8.118V8.859C-8.118 8.416-8.118 7.929-8.032 7.53-7.514 4.519-3.844 4.474-.476 4.474H5.57C8.896 4.474 12.307 4.651 12.825 7.53 12.868 7.974 12.868 8.416 12.868 8.859V9.523C12.868 11.65 11.832 12.58 10.363 13.111 9.586 13.333 8.68 13.466 7.687 13.511 6.693 13.599 5.613 13.599 4.534 13.599H-.13C-4.361 13.599-8.853 13.776-11.443 17.054-12.825 18.737-12.955 20.598-12.955 22.503V23.167C-12.955 29.988-7.773 31.583-.13 31.583H4.404C8.637 31.583 13.214 31.406 15.762 28.128 16.452 27.198 16.928 26.135 17.1 25.071 17.272 24.186 17.272 23.3 17.272 22.414V20.775H12.652V22.68C12.652 23.167 12.652 23.61 12.565 24.097 12.048 27.065 8.42 27.153 5.052 27.153H-.734C-3.109 27.153-6.478 27.109-7.729 25.471-8.291 24.673-8.334 23.698-8.334 22.68L-8.291 22.06C-8.291 19.934-7.298 18.959-5.83 18.516-5.053 18.25-4.146 18.161-3.152 18.073-2.159 18.028-1.036 18.028 0 18.028H4.663C8.853 18.028 13.387 17.807 15.978 14.573 17.359 12.846 17.488 11.074 17.488 9.125V8.461C17.488 1.595 12.221 0 4.663 0Z" fill="currentColor"/>
<path transform="matrix(1,0,0,-1,602.6514,245.12244)" d="M0 0C-10.147 0-13.084-3.81-13.084-11.384-13.084-18.914-10.147-22.768 0-22.768 10.062-22.768 13.084-18.87 13.084-11.384 13.084-3.81 10.147 0 0 0M0 4.43C13.3 4.43 17.748-1.815 17.748-11.384 17.748-20.819 13.214-27.242 0-27.242-13.3-27.242-17.748-20.863-17.748-11.384-17.748-1.904-13.214 4.43 0 4.43" fill="currentColor"/>
<path transform="matrix(1,0,0,-1,667.6016,272.27583)" d="M0 0H-29.277V31.583H-24.656V4.474H0Z" fill="currentColor"/>
<path transform="matrix(1,0,0,-1,709.88198,253.36176)" d="M0 0C0-7.796-1.469-18.914-14.898-18.914-28.241-18.914-29.71-7.751-29.71 0V12.669H-25.089V0C-25.089-3.543-24.657-9.878-21.548-12.447-19.648-14.041-17.662-14.573-14.855-14.573-12.048-14.573-10.105-14.041-8.162-12.447-5.096-9.922-4.578-3.543-4.578 0V12.669H0Z" fill="currentColor"/>
<path transform="matrix(1,0,0,-1,745.94247,245.16645)" d="M0 0V-27.109H-4.621V0H-18.094V4.474H13.516V0Z" fill="currentColor"/>
<path transform="matrix(1,0,0,-1,-191.98317,802.46157)" d="M969.365 561.769H973.98599V530.186H969.365Z" fill="currentColor"/>
<path transform="matrix(1,0,0,-1,817.673,245.12244)" d="M0 0C-10.147 0-13.084-3.81-13.084-11.384-13.084-18.914-10.147-22.768 0-22.768 10.062-22.768 13.084-18.87 13.084-11.384 13.084-3.81 10.147 0 0 0M0 4.43C13.3 4.43 17.748-1.815 17.748-11.384 17.748-20.819 13.214-27.242 0-27.242-13.3-27.242-17.748-20.863-17.748-11.384-17.748-1.904-13.214 4.43 0 4.43" fill="currentColor"/>
<path transform="matrix(1,0,0,-1,857.923,272.27583)" d="M0 0H-4.577V31.583H-1.036L22.153 7.486V31.583H26.816V0H23.189L.044 24.142Z" fill="currentColor"/>
<path transform="matrix(1,0,0,-1,915.66226,272.27583)" d="M0 0C-4.232 0-8.637 .222-11.228 3.499-11.919 4.386-12.394 5.448-12.566 6.512-12.739 7.397-12.739 8.239-12.739 9.125V10.853H-8.118V8.859C-8.118 8.416-8.118 7.929-8.032 7.53-7.514 4.519-3.844 4.474-.476 4.474H5.57C8.896 4.474 12.307 4.651 12.825 7.53 12.868 7.974 12.868 8.416 12.868 8.859V9.523C12.868 11.65 11.832 12.58 10.363 13.111 9.586 13.333 8.68 13.466 7.687 13.511 6.693 13.599 5.613 13.599 4.534 13.599H-.13C-4.361 13.599-8.853 13.776-11.443 17.054-12.825 18.737-12.955 20.598-12.955 22.503V23.167C-12.955 29.988-7.773 31.583-.13 31.583H4.404C8.637 31.583 13.214 31.406 15.762 28.128 16.452 27.198 16.928 26.135 17.1 25.071 17.272 24.186 17.272 23.3 17.272 22.414V20.775H12.652V22.68C12.652 23.167 12.652 23.61 12.565 24.097 12.048 27.065 8.42 27.153 5.052 27.153H-.734C-3.109 27.153-6.478 27.109-7.729 25.471-8.291 24.673-8.334 23.698-8.334 22.68L-8.291 22.06C-8.291 19.934-7.298 18.959-5.83 18.516-5.053 18.25-4.146 18.161-3.152 18.073-2.159 18.028-1.036 18.028 0 18.028H4.663C8.853 18.028 13.387 17.807 15.978 14.573 17.359 12.846 17.488 11.074 17.488 9.125V8.461C17.488 1.595 12.221 0 4.663 0Z" fill="currentColor"/>
<path transform="matrix(1,0,0,-1,275.1339,198.41004)" d="M0 0-71.63 152.227C-81.441 173.08-104.465 186.153-131.372 186.153-158.281 186.153-181.302 173.08-191.115 152.227L-262.744 0H-221.229L-155.12 140.496C-151.108 149.018-142.372 153.981-131.372 153.981-120.374 153.981-111.635 149.018-107.624 140.496L-94.703 113.037C-93.851 111.225-95.103 109.1-97.023 109.1H-144.317C-146.871 109.1-149.195 107.549-150.285 105.118L-162.914 76.949H-80.814C-78.921 76.949-77.191 75.819-76.351 74.033L-41.517 0Z" fill="currentColor"/>
<path transform="matrix(1,0,0,-1,393.82759,156.98926)" d="M0 0 .038 .035C-15.118 16.635-13.948 42.379 2.653 57.535 19.253 72.691 44.997 71.521 60.153 54.92 68.319 45.976 67.688 32.106 58.745 23.94 50.361 16.286 37.65 16.361 29.365 23.765 44.678 8.724 69.26 8.122 85.303 22.769 101.903 37.925 103.074 63.669 87.917 80.269 65.752 104.547 28.102 106.259 3.824 84.094-20.454 61.928-22.166 24.278 0 0" fill="#ed1c24"/>
<path transform="matrix(1,0,0,-1,396.28834,99.32013)" d="M0 0C-16.6-15.156-17.771-40.9-2.615-57.501 19.551-81.778 57.201-83.49 81.479-61.325 105.757-39.159 107.469-1.509 85.303 22.769L85.265 22.734C100.421 6.134 99.251-19.61 82.65-34.766 66.05-49.923 40.306-48.752 25.15-32.152 16.984-23.208 17.614-9.337 26.558-1.171 34.942 6.483 47.653 6.408 55.938-.996 40.625 14.044 16.043 14.647 0 0" fill="currentColor"/>
<path transform="matrix(1,0,0,-1,479.63648,161.38513)" d="M0 0C-2.572-2.574-5.396-4.931-8.452-7.043-18.376-13.903-30.179-17.905-42.586-18.616-54.529-19.3-66.121-16.844-76.109-11.513-86.868-5.772-95.421 3.227-100.843 14.509-102.922 18.617-104.561 22.955-105.727 27.427-109.531 42.028-108.184 57.168-101.934 70.059-101.563 70.847-101.171 71.634-100.758 72.418-105.437 61.033-107.023 48.442-105.108 36.643-104.749 34.44-104.282 32.228-103.719 30.068-100.106 16.203-92.535 4.139-82.401-3.901-71.833-12.274-58.115-16.827-43.774-16.721-29.728-16.618-15.955-12.104-4.993-4.011-3.274-2.774-1.606-1.433 0 0" fill="#ffffff"/>
<path transform="matrix(1,0,0,-1,461.54127,187.73346)" d="M0 0C4.29 1.466 8.634 3.417 12.556 6.227 25.609 15.663 33.89 28.699 42.307 45.371L42.336 45.428C46.717 54.013 54.058 68.393 58.811 78.307 60.901 83.036 64.792 89.974 67.368 94.564L67.503 94.804C73.385 105.07 80.055 116.712 89.88 124.551 104.01 135.755 122.37 141.926 141.576 141.926 142.728 141.926 143.882 141.904 145.034 141.86 124.773 141.032 106.05 134.012 91.947 121.881 82.918 114.148 77.315 103.768 71.896 93.729L71.206 92.451C66.607 84.151 62.415 75.388 58.361 66.914 54.556 58.959 50.629 50.75 46.389 42.981 37.467 25.819 28.21 14.387 17.251 6.99 12.312 3.626 6.538 1.29 0 0" fill="#26aae1"/>
<path transform="matrix(1,0,0,-1,-191.98317,802.46157)" d="M1159.837 1335.971H1304.847V1217.5859H1159.837Z" fill="#26aae1"/>
<path transform="matrix(1,0,0,-1,-191.98317,802.46157)" d="M839.275 1335.971H984.28506V1217.5859H839.275Z" fill="#ffffff"/>
<path transform="matrix(1,0,0,-1,-191.98317,802.46157)" stroke-width="1" stroke-linecap="butt" stroke-miterlimit="10" stroke-linejoin="miter" fill="none" stroke="#808285" d="M839.275 1335.971H984.28506V1217.5859H839.275Z"/>
<path transform="matrix(1,0,0,-1,-191.98317,802.46157)" d="M678.993 1335.971H824.003V1217.5859H678.993Z" fill="currentColor"/>
<path transform="matrix(1,0,0,-1,-191.98317,802.46157)" d="M999.556 1335.971H1144.566V1217.5859H999.556Z" fill="#ed1c24"/>
<path transform="matrix(1,0,0,-1,-112.60447,-457.0797)" d="M0 0-13.006-30.046H-19.873L-32.836 0H-25.325L-16.183-21.461-6.911 0Z" fill="currentColor"/>
<path transform="matrix(1,0,0,-1,-86.85057,-432.6139)" d="M0 0V-5.58H-23.265V24.466H-.558V18.886H-16.354V12.362H-2.403V6.954H-16.354V0Z" fill="currentColor"/>
<path transform="matrix(1,0,0,-1,-68.69427,-451.41419)" d="M0 0H-5.666V-10.473H0C4.249-10.473 6.396-8.499 6.396-5.237 6.396-1.932 4.249 0 0 0M6.524-24.38 .729-16.01H.387-5.666V-24.38H-12.619V5.666H.387C8.413 5.666 13.435 1.502 13.435-5.237 13.435-9.744 11.16-13.049 7.254-14.723L13.993-24.38Z" fill="currentColor"/>
<path transform="matrix(1,0,0,-1,-52.125978,-429.99574)" d="M0 0 2.36 5.236C4.894 3.391 8.67 2.103 12.276 2.103 16.396 2.103 18.07 3.477 18.07 5.322 18.07 10.945 .601 7.082 .601 18.242 .601 23.35 4.722 27.599 13.263 27.599 17.04 27.599 20.903 26.698 23.693 24.938L21.547 19.659C18.757 21.247 15.882 22.019 13.22 22.019 9.1 22.019 7.512 20.474 7.512 18.585 7.512 13.048 24.98 16.869 24.98 5.837 24.98 .815 20.817-3.477 12.233-3.477 7.469-3.477 2.661-2.061 0 0" fill="currentColor"/>
<path transform="matrix(1,0,0,-1,-191.98317,802.46157)" d="M169.602 1259.541H176.556V1229.495H169.602Z" fill="currentColor"/>
<path transform="matrix(1,0,0,-1,8.136734,-465.70765)" d="M0 0H7.211L-.558-6.181H-5.795ZM7.512-23.651C7.512-17.942 3.477-14.036-1.889-14.036-7.254-14.036-11.289-17.942-11.289-23.651-11.289-29.359-7.254-33.266-1.889-33.266 3.477-33.266 7.512-29.359 7.512-23.651M-18.328-23.651C-18.328-14.723-11.374-8.113-1.889-8.113 7.555-8.113 14.551-14.68 14.551-23.651 14.551-32.622 7.555-39.189-1.889-39.189-11.374-39.189-18.328-32.579-18.328-23.651" fill="currentColor"/>
<path transform="matrix(1,0,0,-1,55.481538,-457.0797)" d="M0 0V-30.046H-5.709L-20.688-11.804V-30.046H-27.557V0H-21.805L-6.867-18.242V0Z" fill="currentColor"/>
<path transform="matrix(1,0,0,-1,72.86522,-442.05677)" d="M0 0C0 9.057 6.954 15.538 16.311 15.538 21.505 15.538 25.84 13.649 28.673 10.216L24.209 6.095C22.191 8.413 19.659 9.615 16.654 9.615 11.031 9.615 7.039 5.666 7.039 0 7.039-5.666 11.031-9.615 16.654-9.615 19.659-9.615 22.191-8.413 24.209-6.052L28.673-10.173C25.84-13.649 21.505-15.538 16.268-15.538 6.954-15.538 0-9.057 0 0" fill="currentColor"/>
<path transform="matrix(1,0,0,-1,129.52443,-442.05677)" d="M0 0C0 5.709-4.035 9.615-9.4 9.615-14.766 9.615-18.801 5.709-18.801 0-18.801-5.708-14.766-9.615-9.4-9.615-4.035-9.615 0-5.708 0 0M-25.84 0C-25.84 8.928-18.886 15.538-9.4 15.538 .043 15.538 7.039 8.971 7.039 0 7.039-8.971 .043-15.538-9.4-15.538-18.886-15.538-25.84-8.928-25.84 0" fill="currentColor"/>
<path transform="matrix(1,0,0,-1,141.79982,-457.0797)" d="M0 0H6.954V-24.38H22.02V-30.046H0Z" fill="currentColor"/>
<path transform="matrix(1,0,0,-1,191.16213,-442.05677)" d="M0 0C0 5.709-4.035 9.615-9.4 9.615-14.766 9.615-18.801 5.709-18.801 0-18.801-5.708-14.766-9.615-9.4-9.615-4.035-9.615 0-5.708 0 0M-25.84 0C-25.84 8.928-18.886 15.538-9.4 15.538 .043 15.538 7.039 8.971 7.039 0 7.039-8.971 .043-15.538-9.4-15.538-18.886-15.538-25.84-8.928-25.84 0" fill="currentColor"/>
<path transform="matrix(1,0,0,-1,216.05764,-451.41419)" d="M0 0H-5.665V-10.473H0C4.25-10.473 6.396-8.499 6.396-5.237 6.396-1.932 4.25 0 0 0M6.524-24.38 .73-16.01H.387-5.665V-24.38H-12.619V5.666H.387C8.413 5.666 13.436 1.502 13.436-5.237 13.436-9.744 11.16-13.049 7.254-14.723L13.993-24.38Z" fill="currentColor"/>
<path transform="matrix(1,0,0,-1,-145.43627,-402.3275)" stroke-width="3" stroke-linecap="butt" stroke-miterlimit="10" stroke-linejoin="miter" fill="none" stroke="#0a0a0a" d="M0 0H1258.3"/>
<path transform="matrix(1,0,0,-1,-145.43627,738.84426)" stroke-width="3" stroke-linecap="butt" stroke-miterlimit="10" stroke-linejoin="miter" fill="none" stroke="#0a0a0a" d="M0 0H1258.3"/>
</g>
</g>
</g>
</svg>